Coordinates
version=1
nRows=8
nColumns=63
inDegrees=yes

Units are S.I. units (second, meters, Newtons, ...)
If the header above contains a line with 'inDegrees', this indicates whether rotational values are in degrees (yes) or radians (no).

endheader
time	pelvis_tilt	pelvis_list	pelvis_rotation	pelvis_tx	pelvis_ty	pelvis_tz	hip_flexion_r	hip_adduction_r	hip_rotation_r	knee_angle_r	knee_angle_r_beta	ankle_angle_r	subtalar_angle_r	mtp_angle_r	hip_flexion_l	hip_adduction_l	hip_rotation_l	knee_angle_l	knee_angle_l_beta	ankle_angle_l	subtalar_angle_l	mtp_angle_l	L5_S1_Flex_Ext	L5_S1_Lat_Bending	L5_S1_axial_rotation	L4_L5_Flex_Ext	L4_L5_Lat_Bending	L4_L5_axial_rotation	L3_L4_Flex_Ext	L3_L4_Lat_Bending	L3_L4_axial_rotation	L2_L3_Flex_Ext	L2_L3_Lat_Bending	L2_L3_axial_rotation	L1_L2_Flex_Ext	L1_L2_Lat_Bending	L1_L2_axial_rotation	L1_T12_Flex_Ext	L1_T12_Lat_Bending	L1_T12_axial_rotation	Abs_r3	Abs_r2	Abs_r1	Abs_t1	Abs_t2	neck_flexion	neck_bending	neck_rotation	arm_flex_r	arm_add_r	arm_rot_r	elbow_flex_r	pro_sup_r	wrist_flex_r	wrist_dev_r	arm_flex_l	arm_add_l	arm_rot_l	elbow_flex_l	pro_sup_l	wrist_flex_l	wrist_dev_l
      4.06666667	     -2.91354564	     -5.88564550	     92.10641312	      0.26284121	      0.69769308	      0.70207851	      5.55985927	     -3.83729647	      2.01493932	      3.10161877	      0.05413346	      4.53317187	     -5.50119150	      0.00000000	      6.04535274	      1.39827652	    -12.89994173	      1.80973396	      0.03158582	     12.15934874	     10.54887388	      0.00000000	      0.00916000	     -0.52618678	      1.77201030	      0.01701104	     -0.69982841	      1.88276094	      0.01504897	     -1.27937053	      1.88276094	      0.01046897	     -1.27937053	      1.55050901	      0.00850598	     -1.07300008	      1.43975837	      0.00523403	     -0.81506332	      1.32900772	      0.06542899	     -5.95233007	      9.85538966	      0.00000000	      0.00000000	     27.17264419	      1.21663890	     -2.16871111	      5.71985693	    -12.92216174	     27.76681261	     85.85765642	     61.59256940	     11.96803062	     10.07414499	     15.55377785	    -14.88061889	     21.56063930	     69.72828933	     83.09304458	     -0.12364257	      1.79103145
      4.08333333	     -3.04826572	     -5.62585039	     92.43599083	      0.26239103	      0.69815165	      0.70211729	      5.18717404	     -3.99181061	      1.74882556	      2.95134674	      0.05151072	      4.52395316	     -5.61121861	      0.00000000	      6.02756731	      1.52079886	    -12.52781729	      2.19108437	      0.03824164	     11.77713832	     10.29466200	      0.00000000	     -0.01297093	     -0.54849124	      1.73658568	     -0.02408832	     -0.72949335	      1.84512228	     -0.02130995	     -1.33360161	      1.84512228	     -0.01482448	     -1.33360161	      1.51951247	     -0.01204481	     -1.11848334	      1.41097586	     -0.00741159	     -0.84961293	      1.30243926	     -0.09265008	     -6.20464264	      9.65836855	      0.00000000	      0.00000000	     27.14263420	      1.61460910	     -2.78637208	      7.61387463	    -11.05755608	     27.71334740	     75.40872777	     61.68285279	      5.96714710	      7.95323827	     18.34724642	    -13.84101773	     24.59307909	     58.42608442	     83.29736108	      1.68973123	      4.07805330
      4.10000000	     -3.27968547	     -5.59282489	     92.72444366	      0.26209278	      0.69776368	      0.70174236	      5.03076843	     -4.22620183	      1.62726504	      2.84641138	      0.04967925	      4.64794847	     -5.97652746	      0.00000000	      6.23335060	      1.75507094	    -12.10615096	      2.61539027	      0.04564717	     11.56575793	      9.74591517	      0.00000000	     -0.00991329	     -0.58909433	      1.62228875	     -0.01840997	     -0.78349545	      1.72368179	     -0.01628654	     -1.43232394	      1.72368179	     -0.01132990	     -1.43232394	      1.41950265	     -0.00920548	     -1.20128115	      1.31810961	     -0.00566445	     -0.91250711	      1.21671656	     -0.07080962	     -6.66395283	      9.02268333	      0.00000000	      0.00000000	     27.37494091	      2.23962031	     -3.12661985	     10.10380392	     -8.78200453	     28.62024860	     64.02738137	     64.81354085	     -0.21476311	      4.51088355	     20.39945457	    -12.84676223	     27.76297002	     47.49605766	     84.71443228	      0.94501930	      5.22060929
      4.11666667	     -3.60074009	     -5.77296955	     93.03921579	      0.26161579	      0.69643404	      0.70104857	      5.04830246	     -4.58066896	      1.60182299	      2.73156662	      0.04767483	      4.80253214	     -6.46903896	      0.00000000	      6.61203473	      2.09902767	    -11.36109672	      3.02907290	      0.05286730	     11.45657513	      9.13377909	      0.00000000	      0.01563462	     -0.64074033	      1.45900344	      0.02903506	     -0.85218463	      1.55019115	      0.02568612	     -1.55789603	      1.55019115	      0.01786881	     -1.55789603	      1.27662801	      0.01451831	     -1.30659767	      1.18544029	      0.00893362	     -0.99250677	      1.09425258	      0.11167655	     -7.24818272	      8.11453942	      0.00000000	      0.00000000	     27.69905819	      3.01469995	     -3.16633159	     12.57940967	     -6.39986255	     30.25342891	     52.52729800	     70.41322015	     -5.48395708	      0.96811599	     21.74649126	    -12.14942982	     32.19820276	     37.58792744	     86.24543010	     -2.45061629	      4.28064521
      4.13333333	     -3.96615994	     -6.01660892	     93.40504235	      0.26072231	      0.69450082	      0.70032506	      5.12547869	     -5.01808985	      1.50632189	      2.69962885	      0.04711741	      5.09996966	     -6.84895420	      0.00000000	      7.04617225	      2.53642999	    -10.59414250	      3.45977966	      0.06038455	     11.66705194	      8.59512114	      0.00000000	      0.03866631	     -0.69353811	      1.30157544	      0.07180721	     -0.92240569	      1.38292391	      0.06352488	     -1.68626856	      1.38292391	      0.04419173	     -1.68626856	      1.13887851	      0.03590554	     -1.41426292	      1.05753005	      0.02209393	     -1.07429053	      0.97618158	      0.27618960	     -7.84544182	      7.23897215	      0.00000000	      0.00000000	     27.98132391	      3.74761363	     -3.24181110	     14.57436412	     -4.54869587	     32.86979684	     42.20590677	     75.65229195	     -8.89036766	     -0.79087872	     22.49570957	    -11.55652080	     38.24885001	     28.99730957	     87.26025185	     -6.48128380	      2.46022835
      4.15000000	     -3.98187328	     -6.44874919	     93.78796661	      0.25957611	      0.69237234	      0.69994569	      5.41589412	     -5.10334114	      1.12170774	      2.59074148	      0.04521697	      4.95575097	     -7.11868149	      0.00000000	      7.59243959	      2.73684325	     -8.22634856	      3.58630247	      0.06259279	     11.39450132	      5.76755510	      0.00000000	      0.08947269	     -0.70032922	      1.32645023	      0.16615972	     -0.93143786	      1.40935337	      0.14699467	     -1.70278045	      1.40935337	      0.10225833	     -1.70278045	      1.16064395	      0.08308434	     -1.42811134	      1.07774081	      0.05112469	     -1.08480995	      0.99483767	      0.63909444	     -7.92226415	      7.37731826	      0.00000000	      0.00000000	     28.11259379	      3.44840596	     -3.93992473	     14.88271852	     -3.61671985	     34.42406363	     34.65879503	     80.50252393	    -11.00522942	      0.10477884	     25.26140481	    -10.86639059	     62.87150972	     19.67199348	     74.96326548	    -12.88359664	     -2.17433312
      4.16666667	     -3.64293491	     -6.77081296	     94.23388992	      0.25715078	      0.69095404	      0.69965435	      5.65488732	     -4.92737328	      0.07456810	      2.58130681	      0.04505230	      4.87004721	     -6.35163981	      0.00000000	      8.02804880	      2.62238976	     -6.88401758	      3.70930054	      0.06473951	     11.53145268	      4.59386382	      0.00000000	      0.13167736	     -0.63010171	      1.12069233	      0.24453803	     -0.83803527	      1.19073560	      0.21633274	     -1.53202929	      1.19073560	      0.15049406	     -1.53202929	      0.98060579	      0.12227560	     -1.28490340	      0.91056252	      0.07524045	     -0.97602755	      0.84051925	      0.94055824	     -7.12783654	      6.23295453	      0.00000000	      0.00000000	     28.18720428	      3.56268276	     -2.54071394	     15.85198265	     -3.86089127	     43.29609886	     28.17909513	     79.97568639	    -11.52588282	      1.17232199	     26.25851049	     -5.85249227	    147.06312082	      3.68744759	      4.58573377	     -9.39205267	     -7.91001149
      4.18333333	     -3.76056979	     -6.96940999	     94.78421387	      0.25605741	      0.68960820	      0.69958250	      5.70010036	     -5.11176380	     -0.13004316	      2.51088818	      0.04382327	      4.85700637	     -6.94859670	      0.00000000	      8.27070499	      2.91156196	     -5.45693774	      3.72437263	      0.06500256	     11.56179558	      3.44524048	      0.00000000	      0.15053890	     -0.63470826	      0.95030730	      0.27956579	     -0.84416199	      1.00970151	      0.24732036	     -1.54322966	      1.00970151	      0.17205091	     -1.54322966	      0.83151889	      0.13979042	     -1.29429708	      0.77212468	      0.08601793	     -0.98316309	      0.71273048	      1.07528429	     -7.17994677	      5.28532412	      0.00000000	      0.00000000	     28.22041457	      3.78964617	     -1.65863839	     16.92838545	     -4.06621000	     58.60899261	     22.76205033	     74.56881596	    -11.10550620	      2.17214817	     24.20837162	     -6.87334167	    144.40053251	      5.71525440	      7.49542733	    -11.74842405	     -6.35152760
